<svg width="1251" height="736" viewBox="0 0 1251 736" fill="none" xmlns="http://www.w3.org/2000/svg">
<mask id="path-1-inside-1_499_1476" fill="white">
<path d="M1250.5 644C1250.5 655.046 1241.55 664 1230.5 664H1145.5C1134.45 664 1125.5 672.954 1125.5 684V716C1125.5 727.046 1116.55 736 1105.5 736H20.5C9.45433 736 0.5 727.046 0.5 716V20C0.5 8.95432 9.45431 0 20.5 0H1230.5C1241.55 0 1250.5 8.95431 1250.5 20V644Z"/>
</mask>
<path d="M1230.5 664V663H1145.5V664V665H1230.5V664ZM1125.5 684H1124.5V716H1125.5H1126.5V684H1125.5ZM1105.5 736V735H20.5V736V737H1105.5V736ZM0.5 716H1.5V20H0.5H-0.5V716H0.5ZM20.5 0V1H1230.5V0V-1H20.5V0ZM1250.5 20H1249.5V644H1250.5H1251.5V20H1250.5ZM1230.5 0V1C1240.99 1 1249.5 9.50659 1249.5 20H1250.5H1251.5C1251.5 8.40202 1242.1 -1 1230.5 -1V0ZM0.5 20H1.5C1.5 9.50661 10.0066 1 20.5 1V0V-1C8.90202 -1 -0.5 8.40204 -0.5 20H0.5ZM20.5 736V735C10.0066 735 1.5 726.493 1.5 716H0.5H-0.5C-0.5 727.598 8.90205 737 20.5 737V736ZM1125.5 716H1124.5C1124.5 726.493 1115.99 735 1105.5 735V736V737C1117.1 737 1126.5 727.598 1126.5 716H1125.5ZM1145.5 664V663C1133.9 663 1124.5 672.402 1124.5 684H1125.5H1126.5C1126.5 673.507 1135.01 665 1145.5 665V664ZM1230.5 664V665C1242.1 665 1251.5 655.598 1251.5 644H1250.5H1249.5C1249.5 654.493 1240.99 663 1230.5 663V664Z" fill="white" mask="url(#path-1-inside-1_499_1476)"/>
</svg>
