<svg width="40" height="40" viewBox="0 0 40 40" fill="none" xmlns="http://www.w3.org/2000/svg">
<path d="M19.998 10.9502C22.7773 10.9503 25.0411 13.216 25.0498 15.9932C25.0581 18.672 22.9372 20.8824 20.2705 21.041L20.0107 21.0498H19.9639C17.2139 21.0496 14.963 18.7916 14.9502 16.0146C14.9418 14.6644 15.4652 13.3947 16.4141 12.4365C17.3674 11.4781 18.6405 10.9502 19.998 10.9502ZM20.0186 12.4922H19.998C18.0662 12.4922 16.4913 14.0642 16.4912 16.002C16.4871 17.9397 18.0619 19.5156 19.998 19.5156C21.9341 19.5156 23.5088 17.9398 23.5088 16.002C23.5087 15.0577 23.1468 14.1767 22.4863 13.5156C21.8345 12.8591 20.9577 12.4932 20.0215 12.4883L20.0186 12.4922Z" fill="#444444" stroke="#444444" stroke-width="0.1"/>
<path d="M16.7227 20.9502C16.9246 20.9535 17.1235 21.0399 17.2861 21.1221L17.5205 21.248C17.5966 21.2915 17.6716 21.3364 17.7471 21.3818C17.7901 21.407 17.8339 21.4328 17.877 21.458C17.9201 21.4832 17.9637 21.508 18.0068 21.5332H18.0059C18.6723 21.9078 19.3401 22.0967 20.0029 22.0967C20.6656 22.0967 21.3368 21.9078 22.0029 21.5303L22.0039 21.5293L22.1074 21.4727C22.2619 21.388 22.4187 21.2974 22.5615 21.2012C22.8089 21.0309 23.0918 20.9502 23.4248 20.9502C23.5313 20.9502 23.6408 20.9597 23.7627 20.9756L23.9619 21.0068C24.9424 21.1881 25.7016 21.7182 26.2168 22.584C26.6388 23.2879 26.8827 24.0864 26.9902 25.0938L26.9961 25.1494H26.9912C27.0327 25.5827 27.0555 26.0133 27.0488 26.4355C27.0312 27.8289 25.9905 28.8679 24.4688 29.0215H24.4639C24.4624 29.0218 24.4602 29.0225 24.457 29.0234C24.4537 29.0244 24.4498 29.0259 24.4453 29.0273C24.4408 29.0288 24.4351 29.0306 24.4297 29.0322L24.3779 29.0479L24.3711 29.0498H15.6455C15.6036 29.0434 15.5668 29.0362 15.5332 29.0303C15.4994 29.0243 15.4688 29.0193 15.4385 29.0146H15.4375C15.3025 28.9925 15.1664 28.9668 15.0332 28.9316C13.7937 28.6054 13.0128 27.7097 12.96 26.5381C12.9011 25.2211 13.0921 24.0822 13.5371 23.0596L13.6846 22.7539C14.0444 22.0716 14.514 21.6008 15.1406 21.2949C15.6132 21.0647 16.1212 20.9503 16.6562 20.9502H16.7227ZM16.6191 22.1309C16.0878 22.1528 15.6756 22.3105 15.3516 22.6064C15.0783 22.8593 14.8648 23.1714 14.6982 23.5625C14.35 24.3827 14.2025 25.3076 14.2334 26.4775V26.4785C14.2469 27.0017 14.4919 27.395 14.9697 27.6514C15.2567 27.8068 15.5996 27.8789 16.0566 27.8789H22.4512L22.4521 27.876C23.0041 27.876 23.5524 27.8754 24.1006 27.8691C24.6277 27.8629 25.0488 27.7082 25.3359 27.4395C25.6223 27.1713 25.7813 26.7847 25.7764 26.3037C25.7729 25.8548 25.7482 25.4842 25.707 25.1396C25.6076 24.3095 25.4231 23.7056 25.1104 23.1777C24.7183 22.511 24.1743 22.171 23.4512 22.1338C23.3937 22.134 23.3438 22.1483 23.3105 22.166C23.1808 22.2346 23.058 22.3097 22.9297 22.3857H22.9287C22.891 22.4077 22.8531 22.4293 22.8154 22.4512C22.7775 22.4732 22.7391 22.4955 22.7012 22.5176C21.8218 23.0224 20.9198 23.2773 20.0166 23.2773C19.2879 23.2773 18.5462 23.1116 17.8125 22.7812C17.5511 22.6666 17.304 22.5209 17.0703 22.3828C16.9484 22.3128 16.8291 22.2407 16.709 22.1748H16.707C16.6884 22.164 16.6681 22.1515 16.6494 22.1426C16.64 22.1381 16.6313 22.135 16.625 22.1328C16.6222 22.1319 16.6203 22.1311 16.6191 22.1309Z" fill="#444444" stroke="#444444" stroke-width="0.1"/>
</svg>
