<svg width="24" height="24" viewBox="0 0 24 24" fill="none" xmlns="http://www.w3.org/2000/svg">
<path d="M12 22.5L10.6058 21.2869C8.5119 19.4483 6.78032 17.8684 5.41105 16.5472C4.04179 15.2258 2.95674 14.0498 2.15589 13.0192C1.35505 11.9887 0.795579 11.0487 0.477474 10.199C0.159158 9.34949 0 8.48747 0 7.61291C0 5.87787 0.604421 4.42523 1.81326 3.25502C3.02232 2.08501 4.52316 1.5 6.31579 1.5C7.41853 1.5 8.46063 1.74961 9.44211 2.24883C10.4236 2.74805 11.2762 3.46398 12 4.39661C12.7238 3.46398 13.5764 2.74805 14.5579 2.24883C15.5394 1.74961 16.5815 1.5 17.6842 1.5C19.4768 1.5 20.9777 2.08501 22.1867 3.25502C23.3956 4.42523 24 5.87787 24 7.61291C24 8.48747 23.8408 9.34949 23.5225 10.199C23.2044 11.0487 22.6449 11.9887 21.8441 13.0192C21.0433 14.0498 19.9602 15.2258 18.5949 16.5472C17.2299 17.8684 15.4963 19.4483 13.3942 21.2869L12 22.5ZM12 20.0221C14.0211 18.262 15.6842 16.7534 16.9895 15.4961C18.2947 14.2391 19.3263 13.147 20.0842 12.2199C20.8421 11.2928 21.3684 10.4695 21.6632 9.74999C21.9579 9.0307 22.1053 8.31835 22.1053 7.61291C22.1053 6.39033 21.6842 5.37151 20.8421 4.55646C20 3.7414 18.9474 3.33387 17.6842 3.33387C16.6867 3.33387 15.7648 3.60773 14.9185 4.15545C14.0724 4.70337 13.4024 5.46555 12.9085 6.44199H11.0915C10.5894 5.4576 9.91726 4.69349 9.07516 4.14964C8.23305 3.6058 7.31326 3.33387 6.31579 3.33387C5.06063 3.33387 4.01 3.7414 3.16389 4.55646C2.31779 5.37151 1.89474 6.39033 1.89474 7.61291C1.89474 8.31835 2.04211 9.0307 2.33684 9.74999C2.63158 10.4695 3.1579 11.2928 3.91579 12.2199C4.67368 13.147 5.70526 14.2372 7.01053 15.4903C8.31579 16.7435 9.97895 18.2541 12 20.0221Z" fill="white"/>
</svg>
