<svg width="32" height="32" viewBox="0 0 32 32" fill="none" xmlns="http://www.w3.org/2000/svg">
<rect width="32" height="32" rx="16" fill="#D9D9D9"/>
<path d="M23.6585 12.2198C23.4738 11.544 22.9307 11.011 22.2421 10.8297C20.9937 10.5 15.9944 10.5 15.9944 10.5C15.9944 10.5 10.9951 10.5 9.74668 10.8297C9.05808 11.0165 8.52064 11.544 8.3359 12.2198C8 13.4451 8 16 8 16C8 16 8 18.5549 8.3359 19.7802C8.52064 20.456 9.06368 20.989 9.75227 21.1703C11.0007 21.5 16 21.5 16 21.5C16 21.5 20.9993 21.5 22.2477 21.1703C22.9363 20.989 23.4794 20.456 23.6641 19.7802C24 18.5549 24 16 24 16C24 16 24 13.4451 23.6641 12.2198H23.6585ZM14.3989 18.3571V13.6484L18.5528 16.0055L14.3989 18.3571Z" fill="white"/>
</svg>
