<svg width="40" height="40" viewBox="0 0 40 40" fill="none" xmlns="http://www.w3.org/2000/svg">
<path d="M28.7921 19.9946C28.8547 21.5996 28.8764 23.2073 28.9896 24.8086C29.1382 26.9116 27.6673 28.4077 26.345 28.8021C25.9799 28.911 25.5886 28.9872 25.2088 28.9883C21.7681 29.0022 18.3274 29.0033 14.8862 28.9937C12.7509 28.9878 11.0145 27.2835 11.0004 25.1756C10.9949 24.3332 11.0526 23.4901 11.0847 22.6476C11.1462 21.0362 11.2099 19.4247 11.2719 17.8127C11.3143 16.7229 11.3459 15.6325 11.3998 14.5426C11.4863 12.8051 12.9805 11.244 14.7376 11.0423C14.9123 11.0224 15.0891 11.0036 15.2649 11.0036C18.4139 11.0015 21.563 10.9967 24.712 11.0036C26.5137 11.0079 28.0547 12.2003 28.4748 13.9266C28.575 14.3382 28.5886 14.7734 28.6114 15.1994C28.6544 16.0011 28.6756 16.8044 28.7056 17.6067C28.7355 18.4025 28.7643 19.1983 28.7937 19.9941C28.7937 19.9941 28.7932 19.9941 28.7926 19.9941L28.7921 19.9946ZM12.4935 19.9447C12.4935 19.9447 12.4962 19.9447 12.4979 19.9447C12.4337 21.6168 12.3744 23.2889 12.3031 24.9605C12.2378 26.4914 13.3979 27.709 14.9466 27.7106C18.3535 27.7133 21.761 27.7128 25.168 27.7085C25.3628 27.7085 25.5625 27.687 25.7513 27.6414C26.9311 27.3581 27.7761 26.2161 27.7391 24.9567C27.7163 24.1808 27.6814 23.4053 27.6526 22.6294C27.5541 20.0011 27.4605 17.3727 27.3522 14.7444C27.3408 14.468 27.2804 14.1836 27.1852 13.9228C26.8168 12.9118 25.8874 12.2937 24.7419 12.2883C23.3168 12.2813 21.8911 12.2867 20.4659 12.2867C18.7285 12.2867 16.991 12.2802 15.2535 12.2894C13.9094 12.2963 12.7574 13.3599 12.7003 14.6478C12.6225 16.4127 12.561 18.1787 12.493 19.9442L12.4935 19.9447Z" fill="#444444"/>
<path d="M20.1446 18.7137C17.4673 18.7137 15.4256 16.7169 15.4294 14.2522C15.43 13.7435 15.843 13.4479 16.324 13.6121C16.5918 13.7033 16.724 13.9163 16.7338 14.2598C16.7626 15.2825 17.1561 16.1411 17.9897 16.7566C19.0535 17.5428 20.2284 17.6614 21.4228 17.1001C22.6052 16.5447 23.1902 15.5637 23.2462 14.2796C23.2593 13.9812 23.3371 13.7355 23.6391 13.619C24.1109 13.4366 24.5479 13.7328 24.5528 14.2318C24.5718 16.0859 23.3616 17.7987 21.5849 18.4362C21.0696 18.6208 20.5385 18.7094 20.1451 18.7137H20.1446Z" fill="#444444"/>
</svg>
