<svg width="32" height="32" viewBox="0 0 32 32" fill="none" xmlns="http://www.w3.org/2000/svg">
<rect width="32" height="32" rx="16" fill="#D9D9D9"/>
<path d="M22.3748 16.3785C21.9539 16.0566 21.4815 15.8374 20.9768 15.683C20.9044 15.6608 20.8319 15.6389 20.766 15.6007C20.703 15.5639 20.6564 15.5137 20.6491 15.4375C20.6443 15.3891 20.6451 15.3407 20.6615 15.2937C20.6906 15.211 20.7197 15.1284 20.7492 15.0457C20.8774 14.6867 20.9666 14.3207 20.9437 13.9354C20.9116 13.3975 20.6593 13.0006 20.1786 12.7537C19.8683 12.5942 19.5322 12.5352 19.1881 12.5199C18.7591 12.5006 18.3359 12.5505 17.9161 12.6379C17.3607 12.7534 16.8247 12.9307 16.3003 13.1452C16.2362 13.1714 16.1703 13.1947 16.1044 13.2162C16.0319 13.2395 15.9573 13.2522 15.8808 13.2453C15.7879 13.2366 15.741 13.1834 15.7381 13.0898C15.7362 13.037 15.7504 12.9879 15.7654 12.9387C15.8542 12.6485 15.9212 12.3542 15.9485 12.0513C15.9722 11.7869 15.966 11.5243 15.9012 11.2661C15.8142 10.918 15.6343 10.6314 15.3276 10.4348C15.0818 10.2771 14.808 10.209 14.5196 10.1922C14.1128 10.1686 13.7173 10.2356 13.3281 10.3477C12.6839 10.5331 12.0863 10.8222 11.5135 11.1656C10.5805 11.7246 9.74366 12.4056 8.97602 13.1736C8.23678 13.9132 7.57001 14.7114 7.02668 15.608C6.68984 16.164 6.40871 16.7463 6.22153 17.3709C6.05876 17.9142 5.97063 18.4673 6.00887 19.0372C6.04783 19.6221 6.22008 20.165 6.51177 20.6716C6.79472 21.1628 7.16543 21.5801 7.59477 21.9468C8.19381 22.4585 8.86859 22.847 9.59035 23.1566C10.6493 23.6103 11.7556 23.8812 12.8984 24.0131C13.3983 24.0706 13.9002 24.1001 14.4034 24.1008C14.5975 24.0997 14.7912 24.0946 14.985 24.0866C15.5545 24.0626 16.1197 24.0018 16.6812 23.9038C17.4674 23.7669 18.2329 23.5568 18.9743 23.2618C19.8858 22.8995 20.7339 22.4268 21.4928 21.8015C22.0223 21.3653 22.4888 20.8715 22.8533 20.2867C23.1745 19.771 23.3977 19.22 23.4407 18.6068C23.468 18.2164 23.4108 17.8399 23.2583 17.479C23.0682 17.0293 22.7586 16.6735 22.3745 16.3796L22.3748 16.3785ZM19.77 19.7903C19.557 20.2743 19.2409 20.685 18.8607 21.0488C18.3338 21.5525 17.7242 21.9305 17.061 22.2258C16.4085 22.5168 15.7275 22.7127 15.0232 22.8299C14.517 22.914 14.0083 22.9592 13.4948 22.957C12.6012 22.9567 11.7276 22.8307 10.8813 22.5371C10.2673 22.3241 9.69632 22.0317 9.19342 21.6158C8.79612 21.2874 8.46729 20.9024 8.2528 20.4301C7.92579 19.7102 7.92433 18.9815 8.2193 18.2518C8.42942 17.7317 8.76153 17.2951 9.16429 16.9098C9.64388 16.4514 10.1941 16.0963 10.7913 15.8123C11.4811 15.4842 12.2054 15.2657 12.9573 15.1353C13.6256 15.0195 14.2985 14.9754 14.9755 15.0104C15.9238 15.0592 16.8404 15.2493 17.7078 15.6462C18.2464 15.8927 18.7376 16.2099 19.152 16.6374C19.53 17.0271 19.809 17.4754 19.9397 18.007C20.0908 18.6206 20.0231 19.2153 19.77 19.7907V19.7903Z" fill="white"/>
<path d="M25.8799 12.0622C25.6093 10.8583 24.9953 9.86159 24.0398 9.08194C23.1221 8.33396 22.0628 7.95159 20.8822 7.90243C20.6032 7.89078 20.3246 7.90498 20.0479 7.9403C19.8829 7.96143 19.718 7.9851 19.557 8.02734C19.2584 8.10563 19.029 8.37147 18.9973 8.67444C18.9419 9.20029 19.4 9.61834 19.9179 9.512C20.3367 9.42606 20.7569 9.40531 21.1819 9.46029C21.5784 9.51164 21.9575 9.6187 22.318 9.79095C23.0576 10.1445 23.6232 10.6842 24.0165 11.402C24.302 11.9234 24.4491 12.4842 24.4677 13.0786C24.4811 13.509 24.421 13.9296 24.2899 14.34C24.2455 14.4787 24.2382 14.6186 24.2699 14.761C24.3424 15.0858 24.6414 15.336 24.9793 15.3523C25.3183 15.3687 25.6388 15.1499 25.7411 14.8316C25.9126 14.2974 26.004 13.7504 25.9993 13.1517C26.0062 12.8083 25.964 12.4322 25.8806 12.0622H25.8799Z" fill="white"/>
<path d="M21.8726 13.8549C21.9102 14.1681 22.157 14.4146 22.4608 14.4441C22.7761 14.4747 23.0623 14.2875 23.1599 13.9812C23.3085 13.5144 23.3253 13.0417 23.2062 12.5669C22.9167 11.4139 21.8756 10.6117 20.6851 10.6212C20.5832 10.623 20.459 10.6241 20.3363 10.6459C20.2707 10.6576 20.2048 10.6671 20.1403 10.6831C19.8192 10.7625 19.5781 11.0869 19.6618 11.4667C19.7405 11.8229 20.0814 12.037 20.4404 11.9653C20.5901 11.9354 20.739 11.9296 20.8912 11.9518C21.4983 12.0396 21.9571 12.5625 21.9622 13.175C21.9633 13.3061 21.948 13.4343 21.9087 13.5596C21.8785 13.6557 21.8606 13.7537 21.8726 13.8549Z" fill="white"/>
<path d="M15.5363 17.0517C14.9336 16.6941 14.2771 16.5667 13.5826 16.6216C12.9453 16.6723 12.3587 16.8744 11.8248 17.2254C11.3179 17.5586 10.9195 17.9898 10.6624 18.5437C10.4385 19.0265 10.3569 19.5313 10.4589 20.0571C10.5849 20.7075 10.933 21.2162 11.4727 21.5935C12.0244 21.9795 12.6464 22.1386 13.2822 22.1448C14.0269 22.1393 14.6882 21.9503 15.292 21.5698C15.8571 21.2133 16.2901 20.7377 16.5516 20.1172C16.7948 19.54 16.8378 18.9501 16.6281 18.3539C16.4278 17.7851 16.0516 17.3565 15.5367 17.0514L15.5363 17.0517ZM13.6365 20.095C13.4945 20.513 13.1864 20.757 12.7735 20.8805C12.6686 20.9118 12.5604 20.9252 12.4588 20.9223C12.2713 20.9256 12.102 20.8856 11.9443 20.8003C11.5677 20.5964 11.401 20.1653 11.5513 19.7479C11.7065 19.3175 12.0262 19.0659 12.4628 18.9552C12.6544 18.9067 12.847 18.9089 13.0375 18.9632C13.5473 19.1077 13.8069 19.5932 13.6361 20.095H13.6365ZM14.5797 18.9876C14.4814 19.1562 14.2727 19.2479 14.0822 19.2101C13.8794 19.1696 13.7683 18.9839 13.8292 18.7858C13.8878 18.5943 14.0771 18.4577 14.3128 18.4588C14.414 18.4625 14.5272 18.5054 14.5942 18.6252C14.6623 18.7469 14.6481 18.8703 14.5797 18.9876Z" fill="white"/>
</svg>
