<svg width="40" height="40" viewBox="0 0 40 40" fill="none" xmlns="http://www.w3.org/2000/svg">
<path d="M24.9427 26.1917C21.1262 29.2294 15.8423 28.4733 12.9619 25.0036C10.158 21.633 10.3785 16.6197 13.502 13.4966C16.612 10.3869 21.6122 10.1574 24.9923 12.9475C28.4803 15.8277 29.2319 21.1289 26.1669 24.9721C26.2254 25.0081 26.302 25.0351 26.356 25.0891C27.1391 25.8632 27.9177 26.6417 28.6963 27.4203C29.0204 27.7443 29.0879 28.1718 28.8854 28.5363C28.5883 29.0628 27.8952 29.1619 27.4496 28.7253C26.815 28.0998 26.1894 27.4653 25.5638 26.8307C25.3568 26.6237 25.1543 26.4077 24.9427 26.1917ZM12.8224 19.5854C12.8449 23.3296 15.8558 26.3267 19.5824 26.3177C23.3225 26.3087 26.32 23.2756 26.2975 19.5269C26.275 15.8142 23.228 12.8125 19.5104 12.844C15.8198 12.871 12.7999 15.9177 12.8224 19.5899V19.5854Z" fill="#444444"/>
</svg>
