<svg width="32" height="32" viewBox="0 0 32 32" fill="none" xmlns="http://www.w3.org/2000/svg">
<rect width="32" height="32" rx="16" fill="#D9D9D9"/>
<path d="M15.9997 9.85174C18.0022 9.85174 18.2393 9.8593 19.0303 9.89546C19.7615 9.92881 20.1586 10.051 20.4229 10.1536C20.773 10.2895 21.0227 10.4521 21.2853 10.7147C21.5476 10.977 21.7102 11.227 21.8464 11.5771C21.949 11.8414 22.0712 12.2385 22.1045 12.9697C22.1407 13.7606 22.1483 13.9978 22.1483 16.0003C22.1483 18.0028 22.1407 18.2399 22.1045 19.0308C22.0712 19.7621 21.949 20.1592 21.8464 20.4235C21.7105 20.7735 21.5479 21.0233 21.2853 21.2859C21.023 21.5482 20.773 21.7108 20.4229 21.847C20.1586 21.9496 19.7615 22.0717 19.0303 22.1051C18.2396 22.1413 18.0025 22.1488 15.9997 22.1488C13.9969 22.1488 13.7598 22.1413 12.9692 22.1051C12.2379 22.0717 11.8408 21.9496 11.5765 21.847C11.2265 21.711 10.9767 21.5485 10.7141 21.2859C10.4518 21.0235 10.2892 20.7735 10.153 20.4235C10.0504 20.1592 9.92825 19.7621 9.8949 19.0308C9.85874 18.2399 9.85118 18.0028 9.85118 16.0003C9.85118 13.9978 9.85874 13.7606 9.8949 12.9697C9.92825 12.2385 10.0504 11.8414 10.153 11.5771C10.289 11.227 10.4515 10.9773 10.7141 10.7147C10.9767 10.4521 11.2265 10.2898 11.5765 10.1536C11.8408 10.051 12.2379 9.92881 12.9692 9.89546C13.7601 9.8593 13.9972 9.85174 15.9997 9.85174ZM15.9997 8.50028C13.963 8.50028 13.7074 8.50897 12.9075 8.5454C12.1093 8.58184 11.5642 8.70852 11.0869 8.89406C10.5936 9.08576 10.1754 9.34221 9.75841 9.75897C9.34137 10.176 9.08492 10.5942 8.8935 11.0874C8.70824 11.5645 8.58156 12.1096 8.54512 12.9078C8.50869 13.7077 8.5 13.963 8.5 16C8.5 18.037 8.50869 18.2923 8.54512 19.0922C8.58156 19.8904 8.70824 20.4355 8.89378 20.9128C9.08548 21.4061 9.34193 21.8243 9.75869 22.2413C10.1757 22.6584 10.5939 22.9148 11.0872 23.1062C11.5642 23.2915 12.1093 23.4184 12.9078 23.4549C13.7077 23.4913 13.963 23.5 16 23.5C18.037 23.5 18.2923 23.4913 19.0922 23.4549C19.8904 23.4184 20.4355 23.2918 20.9128 23.1062C21.4061 22.9145 21.8243 22.6581 22.2413 22.2413C22.6584 21.8243 22.9148 21.4061 23.1062 20.9128C23.2915 20.4358 23.4184 19.8907 23.4549 19.0922C23.4913 18.2923 23.5 18.037 23.5 16C23.5 13.963 23.4913 13.7077 23.4549 12.9078C23.4184 12.1096 23.2918 11.5645 23.1062 11.0872C22.9145 10.5939 22.6581 10.1757 22.2413 9.75869C21.8243 9.34165 21.4061 9.0852 20.9128 8.89378C20.4358 8.70852 19.8907 8.58156 19.0922 8.54512C18.2923 8.50869 18.037 8.5 16 8.5L15.9997 8.50028Z" fill="white"/>
<path d="M15.9997 12.1484C13.8728 12.1484 12.1486 13.8727 12.1486 15.9996C12.1486 18.1266 13.8728 19.8508 15.9997 19.8508C18.1267 19.8508 19.8509 18.1266 19.8509 15.9996C19.8509 13.8727 18.1267 12.1484 15.9997 12.1484ZM15.9997 18.4996C14.6191 18.4996 13.4997 17.3802 13.4997 15.9996C13.4997 14.619 14.6191 13.4996 15.9997 13.4996C17.3803 13.4996 18.4997 14.619 18.4997 15.9996C18.4997 17.3802 17.3803 18.4996 15.9997 18.4996Z" fill="white"/>
<path d="M20.6394 12.6325C20.9909 12.281 20.9909 11.7112 20.6394 11.3597C20.288 11.0083 19.7182 11.0083 19.3667 11.3597C19.0153 11.7112 19.0153 12.281 19.3667 12.6325C19.7182 12.9839 20.288 12.9839 20.6394 12.6325Z" fill="white"/>
</svg>
